<?xml version="1.0" encoding="UTF-8" standalone="no"?>
<!-- Created with Inkscape (http://www.inkscape.org/) -->

<svg
   width="32000"
   height="32000"
   viewBox="0 0 8466.6666 8466.6666"
   version="1.1"
   id="svg5"
   inkscape:version="1.1.1 (3bf5ae0d25, 2021-09-20)"
   sodipodi:docname="background.svg"
   inkscape:export-filename="D:\Work\oneMinuteStory\assets\src\background.png"
   inkscape:export-xdpi="12"
   inkscape:export-ydpi="12"
   xmlns:inkscape="http://www.inkscape.org/namespaces/inkscape"
   xmlns:sodipodi="http://sodipodi.sourceforge.net/DTD/sodipodi-0.dtd"
   xmlns="http://www.w3.org/2000/svg"
   xmlns:svg="http://www.w3.org/2000/svg">
  <sodipodi:namedview
     id="namedview7"
     pagecolor="#ffffff"
     bordercolor="#666666"
     borderopacity="1.0"
     inkscape:pageshadow="2"
     inkscape:pageopacity="0.0"
     inkscape:pagecheckerboard="0"
     inkscape:document-units="px"
     showgrid="false"
     height="32000mm"
     units="px"
     inkscape:zoom="0.01"
     inkscape:cx="-18350"
     inkscape:cy="1150"
     inkscape:window-width="1920"
     inkscape:window-height="1017"
     inkscape:window-x="1912"
     inkscape:window-y="-8"
     inkscape:window-maximized="1"
     inkscape:current-layer="layer1"
     inkscape:snap-grids="true">
    <inkscape:grid
       type="xygrid"
       id="grid567"
       originx="0"
       originy="0" />
  </sodipodi:namedview>
  <defs
     id="defs2" />
  <g
     inkscape:label="bg"
     inkscape:groupmode="layer"
     id="layer1"
     style="display:none">
    <rect
       style="fill:#803300;stroke:#000000;stroke-width:0.264413"
       id="rect353"
       width="8466.4023"
       height="8466.4023"
       x="0.1322065"
       y="0.1322065" />
  </g>
  <g
     inkscape:groupmode="layer"
     id="layer6"
     inkscape:label="secret"
     style="display:none"
     sodipodi:insensitive="true">
    <ellipse
       style="fill:#00ffff;stroke:#000000;stroke-width:4.47105"
       id="path1051"
       cx="4233.3335"
       cy="4233.3335"
       rx="3966.5146"
       ry="3966.5144" />
  </g>
  <g
     inkscape:groupmode="layer"
     id="layer5"
     inkscape:label="castle"
     sodipodi:insensitive="true"
     style="display:none">
    <ellipse
       style="fill:#ff7f2a;stroke:#000000;stroke-width:0.589371"
       id="path928"
       cx="4233.333"
       cy="4233.3335"
       rx="3703.8718"
       ry="3703.8721" />
  </g>
  <g
     inkscape:groupmode="layer"
     id="layer8"
     inkscape:label="arrows"
     style="display:inline">
    <path
       id="rect2108"
       style="fill:#ff0000;stroke:#000000;stroke-width:0.196001"
       d="m 4213.9492,318.47381 23.3502,-0.33697 90.1272,207.82152 V 4235.5265 H 4125.481 l 0.3688,-3707.56478 z"
       sodipodi:nodetypes="ccccccc" />
    <circle
       style="fill:#ff00ff;stroke:#000000;stroke-width:0.131995"
       id="path3339"
       cx="4224.7827"
       cy="329.33908"
       r="8.4006691" />
  </g>
  <g
     inkscape:groupmode="layer"
     id="layer4"
     inkscape:label="town"
     sodipodi:insensitive="true"
     style="display:none">
    <circle
       style="fill:#ac9d93;stroke:#000000;stroke-width:0.349378"
       id="path769"
       cx="4233.3335"
       cy="4233.3335"
       r="3439.4087" />
  </g>
  <g
     inkscape:groupmode="layer"
     id="layer3"
     inkscape:label="desert"
     sodipodi:insensitive="true"
     style="display:none">
    <ellipse
       style="fill:#ffcc00;stroke:#000000;stroke-width:0.356672"
       id="path628"
       cx="4233.3335"
       cy="4233.333"
       rx="2381.0718"
       ry="2381.0715" />
  </g>
  <g
     inkscape:groupmode="layer"
     id="layer2"
     inkscape:label="center"
     sodipodi:insensitive="true"
     style="display:inline">
    <circle
       style="fill:#ff2a2a;stroke:#000000;stroke-width:0.132258"
       id="path485"
       cx="4233.3335"
       cy="4233.3335"
       r="264.51721" />
  </g>
  <g
     inkscape:groupmode="layer"
     id="layer9"
     inkscape:label="texture"
     sodipodi:insensitive="true"
     style="display:none">
    <rect
       style="fill:#000000;stroke:#000000;stroke-width:0.2668"
       id="rect4411"
       width="67.937881"
       height="7977.7915"
       x="5037.3892"
       y="-802.17322"
       transform="rotate(13.022146)" />
    <rect
       style="fill:#000000;stroke:#000000;stroke-width:0.2668"
       id="rect4411-3"
       width="67.937881"
       height="7977.7915"
       x="3159.1526"
       y="-9026.708"
       transform="rotate(103.02215)" />
    <rect
       style="fill:#000000;stroke:#000000;stroke-width:0.2668"
       id="rect4411-3-2"
       width="67.937881"
       height="7977.7915"
       x="5293.2598"
       y="-6758.6606"
       transform="rotate(72.624551)" />
    <rect
       style="fill:#000000;stroke:#000000;stroke-width:0.2668"
       id="rect4411-3-2-7"
       width="67.937881"
       height="7977.7915"
       x="-219.84633"
       y="-9980.5781"
       transform="matrix(0.68733781,-0.7263379,-0.7263379,-0.68733781,0,0)" />
    <rect
       style="fill:#000000;stroke:#000000;stroke-width:0.2668"
       id="rect4411-3-2-5"
       width="67.937881"
       height="7977.7915"
       x="5932.6606"
       y="-3317.8577"
       transform="rotate(38.736639)" />
    <rect
       style="fill:#000000;stroke:#000000;stroke-width:0.2668"
       id="rect4411-3-2-5-9"
       width="67.937881"
       height="7977.7915"
       x="-3245.6533"
       y="1100.96"
       transform="matrix(-0.9755639,0.2197159,0.2197159,0.9755639,0,0)" />
    <path
       style="fill:#000000;stroke:#000000;stroke-width:0.264583"
       id="path5177"
       d="m 5363.0104,1638.4792 c 49.6363,-10.4148 93.5541,-36.3875 137.207,-61.0276 70.0892,-37.5256 129.3131,-90.7857 186.5003,-145.2239 27.854,-27.4529 53.3701,-57.3544 81.5949,-84.4376 9.0403,-8.6748 5.405,-9.0099 11.6061,-7.106 -14.7797,2.2402 -30.5367,0.98 -44.3389,6.7208 -6.5622,2.7296 -8.4746,11.4129 -12.8057,17.048 -6.2724,8.1607 -12.7049,16.1974 -19.0043,24.3374 -34.1245,44.0972 -64.3269,89.4059 -94.3031,136.4757 -68.6436,111.948 -130.4308,227.8643 -197.344,340.8151 -5.3302,8.8913 -10.6606,17.7825 -15.9908,26.6738 0,0 38.4068,-0.4351 38.4068,-0.4351 v 0 c 5.1782,-8.8956 10.3564,-17.7912 15.5347,-26.6867 65.3859,-113.4551 125.9469,-229.6987 195.6732,-340.6344 13.257,-20.2619 26.0778,-40.816 39.771,-60.7857 23.7179,-34.5892 50.2792,-66.8135 76.1427,-99.7503 4.5457,-5.7887 18.0437,-11.7761 13.44,-17.5189 -7.5394,-9.4049 -23.2958,-6.2038 -34.9438,-9.3058 -8.9537,6.3762 -17.1774,16.2992 -24.5158,24.0393 -22.1913,23.4053 -44.4626,46.731 -66.8704,69.93 -57.1447,54.3227 -116.5742,107.0417 -186.687,144.2716 -44.145,24.6669 -88.5923,49.6878 -138.5962,60.2391 0,0 39.5233,2.3612 39.5233,2.3612 z" />
    <path
       style="fill:#000000;stroke:#000000;stroke-width:0.264583"
       id="path5179"
       d="m 6766.5418,2435.4396 c 1.3402,-0.1839 34.1931,-4.626 33.6892,-4.8542 -5.6734,-2.5682 -18.0054,-3.5938 -18.4989,2.6143 -0.4993,6.2787 12.3609,3.1837 17.7831,6.3889 17.327,10.2423 19.038,18.3286 29.3752,35.4602 2.17,10.0091 6.2821,19.7882 6.5103,30.0275 0.2666,11.9569 -2.0494,23.9451 -5.0493,35.5226 -16.178,62.4395 -63.0327,89.876 -113.835,122.3602 -43.5815,23.3908 -90.4249,33.6785 -139.7203,33.9618 -4.6551,0.027 -8.9635,-2.661 -13.5803,-3.2561 -95.5201,-12.3121 -2.5154,4.3497 -98.6575,-14.5854 -39.9172,-10.1739 -79.5946,-21.3122 -118.8884,-33.6826 -21.0315,-6.6212 -40.3509,-14.1844 -62.317,-16.3027 -15.9992,2.0792 -32.8238,0.756 -47.9981,6.2373 -3.7589,1.3576 -0.9728,17.3358 2.8016,26.6594 11.5601,28.5557 30.7899,55.1451 46.6771,81.2923 52.5423,91.0468 102.5041,183.7188 147.859,278.5669 0,0 37.3181,-4.1079 37.3181,-4.1079 v 0 c -46.0269,-94.5626 -95.7609,-187.363 -147.3821,-278.9759 -15.503,-25.9126 -33.9907,-52.1736 -45.3965,-80.3404 -1.7598,-4.3453 -3.1206,-8.9215 -3.6674,-13.5775 -0.284,-2.4192 3.5854,-6.5951 1.227,-7.2039 -9.6122,-2.4812 -19.8542,-0.1112 -29.7812,-0.1669 23.2325,0.8003 40.9538,8.3103 63.153,15.2216 39.6146,12.333 79.6175,23.379 119.7514,33.8834 16.5342,3.3783 32.9246,7.5597 49.6028,10.1352 51.3346,7.927 80.1737,5.8266 136.6125,3.3637 35.5539,-1.5514 62.2683,-4.1409 96.0524,-15.9079 15.1709,-5.2839 29.2643,-13.2624 43.8967,-19.8935 51.6257,-33.521 98.1459,-61.9288 114.3472,-125.6088 3.0602,-12.0293 5.4327,-24.458 5.2266,-36.8687 -0.1768,-10.6428 -4.2395,-20.8622 -6.359,-31.2933 -10.3671,-18.2325 -11.944,-26.4244 -29.4286,-38.0576 -32.6397,-21.7165 -74.8017,-2.5416 -110.7148,-0.019 0,0 39.3912,3.0069 39.3912,3.0069 z" />
    <path
       style="fill:#000000;stroke:#000000;stroke-width:0.264583"
       id="path5181"
       d="m 7296.4372,4000.0512 c 37.1136,33.9195 57.414,67.6866 68.7743,116.4759 3.5517,26.1275 2.3206,61.9138 -29.3824,69.0843 -4.7456,1.0735 -9.7011,0.7637 -14.5517,1.1455 7.6306,-1.341 17.3301,1.3712 22.8915,-4.0228 3.7817,-3.668 -10.3814,-1.8558 -15.4858,-3.1601 -19.7811,-5.055 -38.459,-13.6081 -56.939,-22.0902 -28.5781,-12.456 -59.61,-16.9118 -89.7096,-24.1618 -23.909,-5.1201 -43.5347,-5.795 -69.2796,-0.5819 -4.503,0.9119 1.3679,15.3264 5.9535,24.8154 23.0248,42.9068 23.8414,93.8385 21.9366,141.3791 -4.6517,25.0698 -1.2003,61.4288 -21.9169,80.6894 -3.0666,2.851 -6.9609,4.6562 -10.4413,6.9841 -4.2044,1.2456 -16.9723,3.2589 -12.6131,3.7364 7.8266,0.8578 19.2183,4.0733 23.483,-2.5453 3.6154,-5.6114 -13.2645,-1.7069 -19.7648,-3.2252 -25.0772,-5.8584 -48.8449,-16.4816 -72.4832,-26.3873 -48.2339,-20.7078 -95.1445,-44.1131 -139.2404,-72.6192 -41.0455,-23.3553 -62.0452,-63.1522 -77.465,-106.0605 -7.6496,-26.5739 -9.3638,-54.1958 -3.4948,-81.1951 3.5874,-10.8108 6.1469,-21.9182 9.005,-32.9338 0,0 -39.3974,1.5523 -39.3974,1.5523 v 0 c -2.8542,11.0701 -5.5251,22.1968 -8.9687,33.1044 -5.7741,27.7638 -3.8696,56.0888 4.1132,83.331 15.6674,43.3681 36.4425,84.7167 77.9379,108.5411 44.1426,28.8117 91.1987,52.3349 139.5588,73.2556 50.4419,21.5012 103.3157,46.1531 158.6494,22.6081 3.4877,-2.7353 7.4235,-4.9802 10.4635,-8.2062 19.8974,-21.1148 16.8344,-56.7178 21.1797,-82.986 1.6614,-48.0474 0.9759,-99.6574 -21.3774,-143.3562 -1.651,-3.3293 -3.591,-6.5303 -4.9529,-9.9877 -0.7693,-1.953 -1.2349,-4.0469 -1.3995,-6.1396 -0.038,-0.4879 1.31,-1.227 0.8207,-1.218 -70.3657,1.3037 -23.0934,1.2737 -8.717,5.1457 29.9433,7.385 60.8141,11.6286 89.4962,23.4266 19.0874,8.9074 52.1001,25.8005 72.7457,26.5497 18.1682,0.6591 36.353,-0.7243 54.5295,-1.0867 4.8895,-0.7828 9.9587,-0.8199 14.6687,-2.3486 31.5101,-10.2267 32.4673,-47.2501 28.8257,-74.4312 -11.4959,-49.4799 -31.6535,-83.7845 -68.545,-118.9345 0,0 -38.9074,5.8533 -38.9074,5.8533 z" />
    <path
       style="fill:#000000;stroke:#000000;stroke-width:0.264583"
       id="path5183"
       d="m 7154.5136,5599.8622 c -40.9193,-27.1257 -78.6249,-58.6836 -117.0917,-89.0897 -36.586,-27.2956 -65.9516,-62.7556 -101.6969,-90.9795 -62.4143,-29.9369 -82.1648,26.0791 -107.1367,66.718 -23.0268,34.7853 -40.474,73.0141 -63.2751,107.8783 -12.0032,17.2819 -27.9193,31.0517 -40.2097,48.1552 -12.0438,28.786 10.9548,50.3969 30.9701,67.8535 35.8176,25.5828 72.8019,49.6875 110.3956,72.6127 14.4736,9.5462 30.6771,16.3088 44.7023,26.5737 5.7527,4.2103 12.102,9.8659 10.0769,12.2693 -1.3521,1.6049 -4.1763,0.4179 -6.2648,0.6268 -5.0853,0.1359 -15.1398,5.4931 -15.2562,0.4073 -0.1217,-5.3063 19.1846,-1.4365 15.1535,-4.8895 -6.825,-5.8461 -17.9007,-2.3064 -26.5208,-4.8472 -10.809,-3.1861 -21.2662,-7.5539 -31.5069,-12.2569 -27.922,-12.8234 -40.4465,-22.4731 -66.765,-39.5986 -66.3857,-47.6817 -129.452,-99.5664 -197.4429,-145.0682 0,0 -37.5924,6.1821 -37.5924,6.1821 v 0 c 68.2407,45.2785 131.5139,96.9544 197.6911,145.0482 71.5536,47.6888 111.2503,70.4631 201.8407,56.7171 2.0548,-2.0344 5.3139,-3.3396 6.1642,-6.1031 3.7275,-12.1158 -47.6574,-35.9513 -55.8738,-41.5434 -37.5607,-22.6954 -74.3672,-46.7604 -110.2584,-71.9813 -18.2629,-15.5376 -42.1101,-35.6594 -30.0385,-62.0569 12.6051,-16.8099 28.5341,-30.7267 39.9876,-48.4061 22.064,-35.2566 39.846,-73.1295 62.737,-107.9335 1.8161,-2.9202 22.2305,-35.8757 25.0349,-39.9009 3.8317,-5.5003 7.6478,-11.0787 12.2726,-15.9311 3.1995,-3.357 15.2431,-6.5987 11.0135,-8.5005 -8.8567,-3.9818 -19.6434,-1.719 -29.1301,0.355 -3.6238,0.7925 6.9918,2.4807 10.4878,3.721 36.5745,27.4114 65.6278,63.4871 102.3248,90.831 38.406,30.313 75.9981,61.7429 116.2629,89.6172 0,0 38.9444,-6.48 38.9444,-6.48 z" />
    <path
       style="fill:#000000;stroke:#000000;stroke-width:0.264583"
       id="path5185"
       d="m 5856.3391,6987.2816 c 2.4153,-48.4207 4.1967,-96.9231 3.4947,-145.4082 -1.1106,-8.7637 -0.9948,-20.1175 -6.5961,-27.9839 -13.3335,-18.7255 -53.6027,-1.8656 -73.7616,4.4628 -5.5187,1.4511 -10.9546,3.266 -16.5567,4.3532 -18.3547,3.5622 -34.8564,4.5397 -53.4379,7.008 -3.5695,0.474 14.3534,-1.1859 10.7612,-0.937 -21.2773,1.4746 -42.5104,3.6802 -63.8182,4.6146 -4.9206,0.2155 9.7139,-1.6372 14.5707,-2.4556 -34.8178,-3.5293 -73.2499,-4.2813 -103.6125,-23.6341 -1.9143,-2.7182 -4.4981,-5.072 -5.7431,-8.1549 -11.5879,-28.6895 20.4893,-70.8619 34.8191,-92.672 42.9201,-59.2135 91.3016,-114.2267 139.4297,-169.2098 16.8797,-19.6455 33.309,-40.2147 57.1066,-51.4001 0,0 -39.3561,-1.7641 -39.3561,-1.7641 v 0 c -22.8568,12.8468 -39.4283,33.0346 -56.1619,52.8995 -47.8668,55.407 -96.271,110.5834 -139.5168,169.7276 -15.9729,24.3279 -47.0694,65.5454 -35.4732,97.2658 1.3059,3.5721 4.0374,6.4468 6.0562,9.6704 29.8603,21.2673 69.4448,21.5654 104.6204,25.8323 59.7915,-2.7269 108.8889,-1.1243 185.5565,-18.688 12.9128,-3.9064 54.2223,-13.1287 -11.1166,-4.9949 -2.2551,0.2808 4.8657,0.6302 6.423,2.2851 5.8779,6.2464 6.1072,19.5112 7.1235,26.3555 1.1552,48.3501 -0.8137,96.7591 -4.2577,144.9881 0,0 39.4468,-2.1603 39.4468,-2.1603 z" />
    <path
       style="fill:#000000;stroke:#000000;stroke-width:0.264583"
       id="path5187"
       d="m 5778.0251,6968.2578 c -47.4174,45.9768 -100.5902,85.4869 -154.652,123.2162 0,0 38.1858,1.1945 38.1858,1.1945 v 0 c 54.282,-38.1842 107.4695,-78.1718 155.8266,-123.7659 0,0 -39.3604,-0.6448 -39.3604,-0.6448 z" />
    <path
       style="fill:#000000;stroke:#000000;stroke-width:0.264583"
       id="path5189"
       d="m 4030.2025,7417.6195 c 43.736,-3.7428 88.4521,-3.3648 131.324,-13.6635 24.0816,-5.7848 41.0858,-13.1809 64.2205,-22.0348 48.0743,-24.4408 98.217,-49.3125 138.311,-86.2467 7.3859,-6.8038 13.7985,-14.5931 20.698,-21.8899 19.1769,-27.9263 43.6225,-60.0944 44.1626,-95.9557 0.329,-21.849 -6.4153,-32.9991 -14.2337,-53.023 -33.4837,-60.5574 -86.573,-96.5581 -144.2038,-131.3441 -36.6354,-18.7746 -76.3832,-37.1085 -118.6909,-34.5189 -19.7408,1.2081 -39.3797,3.7264 -59.0698,5.5897 -31.4962,7.1537 -58.7902,29.7922 -71.4907,59.9313 -2.4848,5.8973 -3.5916,12.2844 -5.3876,18.4269 -0.1995,50.3459 16.6127,77.0817 59.5885,102.1768 19.2052,4.6165 17.4529,5.9587 37.6898,3.5044 60.2933,-7.3117 70.7326,-8.701 116.1641,-40.1153 5.572,-3.9107 11.1441,-7.8217 16.7158,-11.7326 0,0 -38.9347,-1.2161 -38.9347,-1.2161 v 0 c -5.5538,3.8928 -11.1074,7.7857 -16.6612,11.6786 -15.7203,10.5137 -19.1658,13.6929 -36.3243,21.698 -6.7023,3.127 -18.5751,1.2769 -20.533,8.4089 -1.5639,5.6978 19.7419,-3.0579 17.5573,2.4316 -2.5915,6.5125 -34.3383,-0.7673 -37.2461,-1.2814 -42.2588,-22.6793 -59.3641,-48.3233 -59.0039,-96.9351 1.8156,-5.8393 2.98,-11.9228 5.4472,-17.518 12.9986,-29.4821 40.0915,-50.2028 71.2262,-56.4019 -5.8894,-0.053 -23.5569,-0.091 -17.6679,-0.1597 42.5772,-0.4994 81.5732,11.8371 118.8291,32.4282 57.1038,34.1889 110.1869,69.1343 143.6648,128.8755 7.5845,19.2198 14.1668,29.8993 13.7834,50.8662 -0.6431,35.1729 -24.6799,66.5961 -43.8413,93.736 -6.912,7.1225 -13.3807,14.7041 -20.7364,21.3675 -40.1694,36.3892 -89.798,61.3959 -137.9684,85.0699 -24.9072,9.2907 -38.6088,15.3667 -64.4464,21.2722 -9.5579,2.1846 -19.6249,1.9878 -29.0201,4.791 -3.6287,1.0826 15.0679,-0.2405 11.3504,0.481 -0.1665,0.032 -33.9017,2.1767 -36.785,2.3602 0,0 -38.4875,8.9428 -38.4875,8.9428 z" />
    <path
       style="fill:#000000;stroke:#000000;stroke-width:0.264583"
       id="path5191"
       d="m 3118.564,7208.8474 c -112.5086,-68.6727 -224.4281,-138.3174 -336.5061,-207.7037 -38.0386,-26.2356 -80.7259,-45.3334 -118.801,-71.5499 -13.6746,-9.4158 -40.7928,-24.4988 -36.1792,-47.6905 3.3386,-16.7823 28.5066,-30.3147 39.3364,-38.0149 114.0675,-61.1732 221.0435,-134.2125 325.9243,-209.7716 35.4731,-27.1859 71.6335,-53.4323 108.1782,-79.1487 0,0 -38.3045,-1.1658 -38.3045,-1.1658 v 0 c -35.8538,25.9278 -71.3949,52.2779 -106.4966,79.2198 -105.1833,76.0323 -212.8183,148.8742 -327.6446,209.7505 -13.38,10.1144 -36.5827,22.5177 -39.6005,42.6002 -3.7954,25.256 22.3475,39.4631 38.4803,50.3639 38.59,26.0742 81.7243,44.9996 120.1723,71.2744 111.2476,68.6852 222.2841,137.7936 332.378,208.2988 0,0 39.063,-6.4625 39.063,-6.4625 z" />
    <path
       style="fill:#000000;stroke:#000000;stroke-width:0.264583"
       id="path5193"
       d="m 3030.2953,6796.8148 c -70.7512,-42.954 -135.9897,-94.288 -202.4158,-143.5115 0,0 -37.2472,5.9392 -37.2472,5.9392 v 0 c 66.3425,48.9083 131.506,99.6113 200.7355,144.4254 0,0 38.9275,-6.8531 38.9275,-6.8531 z" />
    <path
       style="fill:#000000;stroke:#000000;stroke-width:0.264583"
       id="path5195"
       d="m 1706.4067,5929.5549 c -12.0864,46.9167 -31.253,90.6436 -61.0298,128.9029 -4.1297,3.8864 -17.0397,8.414 -12.389,11.6589 6.7505,4.7097 19.2281,3.1149 24.483,-3.221 3.6855,-4.4436 -10.8848,-4.167 -15.6396,-7.4415 -19.7886,-13.6285 -32.8541,-33.8123 -45.2339,-53.7352 -6.2681,-17.7281 -12.4615,-29.0367 -10.2997,-48.6806 4.2954,-39.0319 30.5062,-74.0458 54.4437,-103.2503 6.9471,-3.4553 15.0262,-5.2294 20.8414,-10.3658 3.1711,-2.8013 -16.0314,0.769 -12.3626,2.8763 9.463,5.4352 21.4108,4.5559 31.6888,8.2239 41.5544,14.8308 78.5887,40.7334 115.6353,63.9879 57.998,34.3181 112.8937,74.3013 173.7977,103.5318 40.4554,19.4162 45.8223,19.7448 87.7696,33.6555 51.645,13.8439 102.0753,13.3035 154.9907,3.6841 14.4003,-2.6179 47.8345,-18.266 58.4149,-29.5909 7.8773,-8.4315 11.7503,-19.8622 17.6255,-29.7933 3.06,-12.4609 7.4186,-24.673 9.1801,-37.3828 7.8637,-56.739 -7.8674,-116.6434 -30.9917,-168.0869 -5.6247,-12.5133 -12.7967,-24.2717 -19.1953,-36.4076 -41.3023,-63.7536 -71.3471,-74.1771 -143.2291,-81.011 -54.8925,-3.7712 -107.9419,5.7905 -156.717,30.2303 -35.6296,18.2794 -61.8274,49.3077 -83.4649,82.2784 -2.2653,4.2877 -4.5304,8.5751 -6.7956,12.8624 0,0 39.2579,-0.6177 39.2579,-0.6177 v 0 c 2.2382,-4.165 4.4768,-8.3296 6.7151,-12.4944 21.5638,-32.5158 47.5895,-62.6268 83.1378,-80.2077 19.0899,-9.1375 37.4057,-16.4675 58.1566,-21.0209 6.6444,-1.4581 17.8077,2.6762 20.0613,-3.742 2.092,-5.9589 -24.5521,-2.349 -18.9389,0.5449 6.1296,3.1602 13.7902,0.2372 20.6854,0.3557 71.3847,6.0765 101.3949,13.748 143.4789,77.1182 6.4388,11.9755 13.6729,23.5561 19.3162,35.9261 23.0128,50.4451 38.7131,110.029 30.5023,165.792 -1.8181,12.3478 -6.2779,24.1595 -9.4169,36.2395 -5.9108,9.3557 -9.9609,20.1885 -17.7324,28.067 -7.2815,7.3819 -16.9701,12.0954 -26.3156,16.5871 -10.1166,4.8624 -21.4109,6.8641 -31.7191,11.3063 -0.6644,0.2863 1.6348,1.9603 0.9112,1.9704 -41.2859,0.575 -39.9231,-1.4646 -80.9558,-9.7208 -41.9414,-13.5555 -47.4097,-13.8516 -87.8634,-33.0094 -60.9925,-28.8852 -115.8026,-68.8871 -173.6807,-103.2405 -32.3554,-20.534 -108.026,-72.4624 -146.6032,-74.6264 -21.3741,-1.199 -43.0573,0.082 -64.096,4.0392 -7.8383,1.4746 -13.8309,7.9475 -20.7464,11.9213 -24.0323,30.3811 -50.0171,66.2274 -54.3393,106.1859 -2.2029,20.3655 4.0391,32.0424 10.401,50.4915 4.3267,7.1333 8.1153,14.6219 12.9802,21.3996 6.7829,9.4496 35.0452,43.172 48.0949,44.0374 17.6702,1.1718 35.7711,-0.5179 52.8843,-5.0736 5.55,-1.4773 8.0879,-8.1562 12.1318,-12.2343 29.2681,-39.2062 48.4913,-83.4577 61.7327,-130.5009 0,0 -39.5624,1.581 -39.5624,1.581 z" />
    <path
       style="fill:#000000;stroke:#000000;stroke-width:0.264583"
       id="path5197"
       d="m 1009.047,4140.2084 c -1.9765,63.5953 9.7283,126.7611 33.1897,185.9748 6.0809,15.3475 14.1145,29.8475 21.1716,44.7714 8.817,12.568 16.3007,26.1859 26.4507,37.7044 25.5709,29.0178 63.7832,53.282 104.3598,48.23 24.4616,-3.0454 50.1464,-5.6656 71.9163,-17.229 11.6013,-6.1621 14.6892,-21.7827 22.0338,-32.6739 14.0459,-65.6093 6.1601,-124.3269 -37.8579,-177.263 -22.2983,-26.8161 -37.43,-33.7319 -65.7254,-52.0688 -49.6721,-24.1655 -102.7444,-32.7911 -157.1943,-18.6962 -2.2509,0.5827 1.2308,4.4843 1.8462,6.7265 5.1454,0.7448 10.243,2.4803 15.4361,2.235 21.4822,-1.0159 42.948,-2.9658 64.2386,-6.002 11.1406,-1.5889 21.9453,-5.0103 32.8364,-7.8428 37.3471,-9.7131 73.5529,-22.0612 109.8349,-35.1032 28.5944,-11.1132 57.2771,-23.0043 86.9111,-31.2062 7.4938,-2.074 15.1076,-3.7669 22.7856,-4.9955 6.3549,-1.0171 18.0898,-8.0623 19.2297,-1.7282 1.1844,6.5827 -11.9428,6.0259 -17.9143,9.0388 7.5901,4.7842 15.5219,9.0645 22.77,14.3524 27.2358,19.8697 50.5168,44.8543 74.9695,67.8739 90.5253,85.2201 -37.1397,-36.2001 51.3374,48.1301 7.4146,7.3667 14.8292,14.7333 22.2439,22.1 0,0 37.9907,-5.4976 37.9907,-5.4976 v 0 c -7.4759,-7.3822 -14.9518,-14.7646 -22.4279,-22.1466 -90.0536,-85.8956 40.5015,38.3534 -51.3321,-48.1141 -31.1837,-29.3617 -60.4408,-61.5891 -97.362,-84.0076 -19.7187,-1.6431 -39.3809,-4.2437 -59.156,-4.9295 -39.9036,-1.3841 -90.7466,27.4072 -128.0601,38.9233 -36.305,12.9631 -72.5414,25.3046 -109.988,34.6467 -11.0062,2.7457 -22.6354,3.3221 -33.2102,7.4267 -3.9216,1.5222 15.3607,-2.6098 12.607,0.5703 -3.1187,3.6015 -9.4883,0.8711 -14.2323,1.3065 -9.1765,3.9783 -8.8235,4.1723 -27.3824,0.6795 -6.2863,-1.1832 12.7785,-1.1565 19.1695,-0.886 30.3961,1.2869 59.3023,10.374 86.6254,23.3804 28.0664,17.5594 43.6117,24.4382 65.8213,50.4593 43.7612,51.2715 51.9068,108.7341 37.1669,172.7812 -7.3505,10.1688 -16.9018,19.0648 -22.0514,30.5065 -1.5925,3.5381 7.052,10.1871 3.2968,11.163 -12.2465,3.1828 -25.6121,0.8564 -37.8981,-2.1703 -42.5641,-10.4854 -70.4043,-44.9341 -92.8383,-79.7521 -7.0504,-14.7615 -15.0914,-29.0898 -21.1515,-44.2847 -23.4692,-58.8476 -34.5063,-121.8544 -31.1384,-185.0521 0,0 -39.3183,2.6687 -39.3183,2.6687 z" />
    <path
       style="fill:#000000;stroke:#000000;stroke-width:0.264583"
       id="path5199"
       d="m 1527.385,3077.9447 c -11.0427,-43.1133 -24.4313,-86.0281 -44.193,-126.0516 -11.8188,-23.9364 -18.668,-33.2235 -32.8473,-55.1572 -12.448,11.55 -9.973,-27.2447 -21.0509,-25.9903 -13.2114,1.4961 -30.5342,1.0258 -38.0392,12.0009 -5.0865,7.4385 8.8378,15.7435 14.0319,23.1073 19.8506,28.143 37.7281,47.6007 60.351,73.9755 71.2861,73.7199 155.5162,132.8869 242.1463,187.0018 32.2075,19.0804 16.8446,10.2333 46.0227,26.6556 0,0 38.2166,-6.6017 38.2166,-6.6017 v 0 c -29.5803,-16.2256 -14.0078,-7.4765 -46.6502,-26.3667 -87.0392,-53.2799 -171.6104,-111.8901 -242.6883,-185.7366 -24.8738,-29.2022 -37.7361,-42.666 -59.0136,-73.5109 -4.7867,-6.9393 -5.2808,-18.1992 -12.9349,-21.7318 -12.2914,-5.6732 -27.0287,-4.2063 -40.5063,-2.9339 -11.0006,1.0386 66.0704,27.7976 21.9627,24.829 36.832,55.8756 62.6117,113.929 76.193,179.8072 0,0 38.9995,-3.2966 38.9995,-3.2966 z" />
    <path
       style="fill:#000000;stroke:#000000;stroke-width:0.264583"
       id="path5201"
       d="m 1582.7758,2650.4871 c 51.7077,65.1593 110.8239,123.5805 173.3511,178.2301 42.637,31.6726 85.6309,75.5577 141.3107,82.3591 25.2574,3.0853 87.6428,-10.9057 102.5427,-13.5286 7.9875,-6.1072 16.9399,-11.126 23.9624,-18.3219 42.4444,-43.4923 21.1423,-107.7493 3.0404,-156.7863 -39.4035,-78.2797 -115.8431,-121.6587 -188.9873,-163.8487 -61.549,-35.706 -93.4744,-44.4275 -165.8796,-24.9284 -17.6332,4.7486 -32.4289,22.2149 -44.6372,34.0826 -15.5915,20.4895 -29.7399,38.6277 -26.7256,65.3319 0,0 39.3659,-3.0658 39.3659,-3.0658 v 0 c -3.6328,-23.8621 11.7891,-43.7984 25.9249,-61.633 6.7248,-6.2398 12.7352,-13.3517 20.1745,-18.7193 7.5097,-5.4188 18.5482,-6.1703 24.337,-13.3984 2.3005,-2.8724 -13.8274,-3.8306 -10.1754,-4.2844 36.8504,-4.5789 69.8941,16.2035 100.4922,32.9729 72.533,41.5046 148.5353,84.2231 188.1559,161.3068 17.6249,47.2928 39.0891,110.5527 -3.5455,151.8641 -7.0001,6.783 -15.8715,11.3194 -23.8073,16.9791 2.5137,1.9249 10.557,4.8104 7.5412,5.7745 -22.8092,7.2908 -48.7179,1.984 -70.0778,-6.4414 -24.7686,-9.7699 -49.5511,-27.9907 -70.5566,-43.6656 -11.9758,-8.9368 -23.5115,-18.4488 -35.2672,-27.6731 -62.2306,-54.0529 -121.3327,-111.8752 -171.4449,-177.572 0,0 -39.0945,4.9658 -39.0945,4.9658 z" />
    <path
       style="fill:#000000;stroke:#000000;stroke-width:0.264583"
       id="path5203"
       d="m 2634.6369,1741.8726 c 24.7651,-54.3391 49.5085,-108.1049 67.9894,-164.9829 1.035,-3.556 17.0673,-58.671 18.9844,-65.1506 1.8272,-6.1757 11.6533,-16.3166 5.5923,-18.4942 -46.8274,-16.8236 -35.9784,7.6818 -34.53,25.9261 0.8614,10.8507 1.3101,21.7301 1.9651,32.5951 5.9185,95.4505 18.8408,190.2659 32.7084,284.8288 5.7579,30.3004 9.3306,60.7905 11.1918,91.5362 0,0 38.6341,-2.7634 38.6341,-2.7634 v 0 c -2.2801,-30.8296 -6.1518,-61.4085 -12.0751,-91.786 -14.597,-94.3257 -27.7074,-189.0545 -32.2327,-284.4837 -0.4346,-10.9359 -0.7232,-21.8787 -1.3038,-32.8078 -0.3623,-6.8215 4.5888,-17.3888 -1.5247,-20.4367 -12.4804,-6.2222 -28.7389,-6.0067 -41.8199,-1.1732 -5.9826,2.2105 -3.2889,12.3248 -4.9938,18.4706 -7.6865,27.7082 -10.2695,36.2377 -18.6275,64.9965 -18.7606,56.9037 -43.669,110.7635 -69.531,164.7366 0,0 39.573,-1.0114 39.573,-1.0114 z" />
    <path
       style="fill:#000000;stroke:#000000;stroke-width:0.264583"
       id="path5205"
       d="m 2989.6356,1630.7144 c -14.5465,-52.6807 1.9598,-104.7128 15.234,-155.7874 10.2177,-37.3109 21.6903,-74.3318 37.5315,-109.6835 2.7195,-6.0689 15.5692,-18.3505 8.9387,-17.8367 -47.3865,3.6725 -35.2909,27.9621 -34.5221,58.8593 -1.2103,124.9811 -5.8304,249.8637 -10.02,374.7674 -2.3075,44.1722 -3.2246,88.1933 -1.4265,132.3674 0,0 38.062,-2.6454 38.062,-2.6454 v 0 c -2.3518,-44.0394 -1.778,-87.9312 0.4078,-132.0063 3.5626,-124.9987 7.4313,-249.9804 10.8745,-374.9822 0.053,-34.7465 12.5035,-57.9759 -42.3458,-55.5853 -6.6217,0.2886 -5.7419,11.9537 -8.3174,18.0607 -15.0777,35.7569 -26.6814,72.7847 -37.0222,110.1583 -13.799,51.67 -30.506,104.0912 -16.8518,157.6496 0,0 39.4573,-3.3359 39.4573,-3.3359 z" />
    <path
       style="fill:#000000;stroke:#000000;stroke-width:0.264583"
       id="path5207"
       d="m 3874.8117,1386.4717 c 64.0478,-37.0285 121.816,-88.0241 170.5021,-143.6555 13.182,-15.0627 24.9116,-31.337 37.3673,-47.0057 28.9665,-34.752 47.8927,-76.0168 71.9766,-113.8728 3.1533,-4.9566 16.5418,-12.9626 10.7528,-13.9635 -44.5129,-7.6959 -36.0473,13.6868 -37.5235,40.0578 -22.4182,154.4695 -41.9459,309.3146 -61.1687,464.2121 -1.4683,47.0383 -16.0313,95.5239 -17.2558,142.578 -0.1834,7.0485 1.6334,14.0069 2.4502,21.0104 0,0 38.8173,-3.0427 38.8173,-3.0427 v 0 c -1.0468,-6.6825 -3.1585,-13.2836 -3.1404,-20.0475 0.031,-11.7672 2.0341,-23.448 3.2861,-35.1484 3.8283,-35.7717 8.9563,-71.399 12.0018,-107.2585 18.0235,-155.2623 37.3111,-310.3507 63.3276,-464.5146 2.9074,-34.5002 14.8702,-47.2483 -39.8949,-37.7746 -5.7293,0.9912 -6.8659,9.4056 -9.8563,14.3924 -22.8873,38.1695 -42.4142,78.4889 -70.6975,113.2735 -12.4607,15.5518 -24.2012,31.7092 -37.3823,46.6553 -49.1457,55.7277 -107.5487,106.8153 -173.0428,142.1984 0,0 39.4804,1.9059 39.4804,1.9059 z" />
    <path
       style="fill:#000000;stroke:#000000;stroke-width:0.264583"
       id="path5209"
       d="m 4301.0639,1254.6821 c 26.8112,-57.4406 75.6347,-101.286 124.7069,-139.8001 -25.0878,2.0015 47.6531,-23.2269 35.7234,-17.4541 -7.9824,3.8625 -22.1831,0.6656 -25.0085,9.0711 -2.9451,8.7608 10.0713,15.5807 13.8927,23.9964 16.387,36.0865 14.2155,42.2072 21.0338,83.9741 -0.1263,18.2428 1.5082,36.5831 -0.3791,54.7285 -10.4938,100.892 -66.805,183.6249 -128.1989,260.4954 -13.4741,19.9287 -69.4367,67.0635 -63.7187,94.4255 3.2911,15.7506 16.4388,22.6638 27.6757,31.8584 34.629,24.0152 76.3765,36.8242 107.7131,65.4788 0,0 38.9515,-5.7713 38.9515,-5.7713 v 0 c -31.2073,-29.2159 -73.1321,-42.1524 -108.3234,-65.694 -9.3376,-7.1125 -23.7489,-14.7394 -26.9259,-27.9571 -5.8471,-24.326 50.2482,-74.2873 61.9845,-92.2574 60.7253,-77.5547 117.2401,-162.172 127.9412,-262.9477 1.9487,-18.3518 0.4137,-36.9076 0.6206,-55.3613 -6.7394,-44.879 -3.8499,-46.6614 -20.1008,-85.3746 -3.8358,-9.1377 -4.5889,-22.2518 -13.5628,-26.4565 -35.6861,-16.7202 -61.153,-4.6075 -87.7899,14.2726 -49.3494,39.6257 -98.4906,84.4894 -125.6981,142.6875 0,0 39.4627,-1.9142 39.4627,-1.9142 z" />
  </g>
</svg>
